# xmcd CD database file
#
# Track frame offsets:
#	200
#	13045
#	25645
#	41265
#	58032
#	73622
#	90960
#	109790
#	127622
#	153167
#	167892
#	186052
#	200695
#	210552
#	235877
#
# Disc length: 3413 seconds
#
# Revision: 2
# Processed by: cddbd v1.4PL0 Copyright (c) Steve Scherf et al.
# Submitted via: CDex 1.51
#
DISCID=b60d530f
DTITLE=Various Artist - Rounder Banjo Extravaganza "Live"
DYEAR=1992
DGENRE=Bluegrass
TTITLE0=Banjo Signal - Tom Adams, Tony Furtado, Tony Trischka
TTITLE1=Knoxlyn Breakdown - Tom Adams
TTITLE2=Santa Cruz - Tom Adams
TTITLE3=Read Line to Shady Grove - Tom Adams
TTITLE4=Chorei - Barry Mitterhoff, Tony Furtado
TTITLE5=Tyson's Dream - Tony Furtado
TTITLE6=Perhaps - Tony Furtado
TTITLE7=Celtic Medley - Tony Furtado
TTITLE8=Dead End -  David Grier
TTITLE9=All Full Up - Mark Schatz
TTITLE10=Go Home With the Girls in the Morning/Slate - Mark Schatz
TTITLE11=Silver Jenny - Tony Trischka
TTITLE12=Karen's Quickstep - Tony Trischka
TTITLE13=Blues for Topo Gigio - Tony Trischka
TTITLE14=Earl's Farewell Blues - Tom Adams, Tony Furtado, Tony Trischka
EXTD=YEAR: 1992
EXTT0=
EXTT1=
EXTT2=
EXTT3=
EXTT4=
EXTT5=
EXTT6=
EXTT7=
EXTT8=
EXTT9=
EXTT10=
EXTT11=
EXTT12=
EXTT13=
EXTT14=
PLAYORDER=
